<svg height="800mm" viewBox="0 0 3000 800" width="3000mm" xmlns="http://www.w3.org/2000/svg"><g transform="matrix(1.3408883 0 0 1.3408883 -401.15244 -139.48108)"><g transform="matrix(1.3939706 0 0 1.3939706 47.666501 -49.315363)"><path d="m287.42178 110h107v107h-107z" fill="#4e8eff" stroke-width=".244513"/><path d="m287.42178 217h214v107h-214z" fill="#6c30ed" stroke-width=".345793"/><path d="m287.42178 324h107v107h-107z" fill="#fe4b79" stroke-width=".244513"/><path d="m281 431h107v107h-6.46206a100.53794 100.53794 45 0 1 -100.53794-100.53794z" fill="#ecd80c" height="107" stroke-width=".244513" transform="translate(6.421791)" width="107" x="281" y="431"/><g stroke-width=".237982"><circle cx="447.92178" cy="484.5" fill="#f7941e" r="53.5"/><circle cx="233.92178" cy="270.5" fill="#00df98" r="53.5"/></g></g><path d="m839.16674 288.98832h67.4697v196.41882h28.69039v-196.41882h67.46967v-24.90704h-163.62976zm185.43356 196.41882h28.6904v-175.6104h-28.6904zm14.5028-199.57161c11.0348 0 19.232-8.51253 19.232-19.54729 0-10.71949-8.1972-19.23202-19.232-19.23202-10.7195 0-19.232 8.51253-19.232 19.23202 0 11.03476 8.5125 19.54729 19.232 19.54729zm54.2774 199.57161h28.6904v-100.574c0-35.31125 17.9709-53.59743 45.4002-53.59743 27.4292 0 45.0849 18.28618 45.0849 53.59743v100.574h28.6904v-100.574c0-35.31125 18.2861-53.59743 45.4001-53.59743 27.4293 0 45.4002 18.28618 45.4002 53.59743v100.574h28.6904v-105.30319c0-48.86824-29.9515-73.46-65.8933-73.46-26.4835 0-49.4988 13.24171-59.2725 40.04043-10.4042-26.79872-33.4195-40.04043-59.5877-40.04043-22.7001 0-42.5627 10.08892-53.9127 30.26678v-27.11399h-28.6904zm423.7844-161.42285c0 21.43897-15.4487 35.94181-42.2474 35.94181h-41.3015v-70.93778h41.3015c26.7987 0 42.2474 13.557 42.2474 34.99597zm35.9418 101.20456c0-24.90704-16.7098-47.60713-41.9321-54.54327 22.3848-7.56669 35.9418-23.64592 35.9418-47.29185 0-33.41957-23.9612-59.27245-70.6225-59.27245h-71.5683v221.32586h74.4058c46.9766 0 73.7753-23.33065 73.7753-60.21829zm-29.6362-3.15279c0 27.11399-17.0251 38.46403-45.7155 38.46403h-44.139v-75.98223h43.1932c27.7445 0 46.6613 13.87227 46.6613 37.5182zm205.296-112.23932h-28.6904v100.57399c0 35.31125-18.6015 53.59743-46.6613 53.59743-28.3751 0-46.6613-18.28618-46.6613-53.59743v-100.57399h-28.6904v105.30318c0 48.86824 30.5821 73.46 66.5239 73.46 23.3306 0 44.1391-10.08892 55.4891-30.58206v27.42928h28.6904zm40.0895 175.6104h28.6904v-175.6104h-28.6904zm14.5028-199.57161c11.0348 0 19.232-8.51253 19.232-19.54729 0-10.71949-8.1972-19.23202-19.232-19.23202-10.7195 0-19.232 8.51253-19.232 19.23202 0 11.03476 8.5125 19.54729 19.232 19.54729zm54.2774 199.57161h28.6904v-240.55788h-28.6904zm88.0122-87.96284c0-36.88765 19.5473-65.89331 58.0114-66.20859 37.8335-.31528 58.6419 30.89734 58.6419 66.20859 0 35.9418-20.8084 66.52386-58.6419 66.52386-38.4641 0-58.0114-29.32094-58.0114-66.52386zm116.9685-56.11966c-12.6111-22.06953-34.6806-34.68069-62.1099-34.68069-53.2822 0-85.1253 36.25708-85.1253 90.80035 0 55.17382 32.789 91.11562 85.1253 91.11562 27.114 0 49.1835-12.92643 62.1099-34.99596v31.84318h28.6904v-240.55788h-28.6904zm68.7801 144.0825h28.6904v-175.6104h-28.6904zm14.5028-199.57161c11.0348 0 19.2321-8.51253 19.2321-19.54729 0-10.71949-8.1973-19.23202-19.2321-19.23202-10.7194 0-19.232 8.51253-19.232 19.23202 0 11.03476 8.5126 19.54729 19.232 19.54729zm54.2774 199.57161h28.6904v-100.574c0-35.31125 18.6014-53.59743 46.9765-53.59743s46.6613 18.28618 46.6613 53.59743v100.574h28.6904v-105.30319c0-48.86824-30.5821-73.46-66.8391-73.46-23.3307 0-44.1391 10.08892-55.4891 30.58206v-27.42927h-28.6904zm210.6559-89.22396c0-36.25708 19.8626-64.94747 58.0113-65.26275 37.8335-.31528 58.9572 30.58206 58.9572 65.26275 0 35.31125-21.1237 65.57803-58.9572 65.57803-38.464 0-58.0113-28.69039-58.0113-65.57803zm-23.0154 104.67263c5.3598 34.05013 40.3557 58.95717 84.4948 58.95717 50.7599 0 84.1795-33.1043 84.1795-80.39615v-169.62009h-28.6904v31.84317c-12.6111-22.3848-34.996-35.31124-62.4252-35.31124-53.2822 0-85.1254 35.9418-85.1254 89.85451 0 54.54327 32.7891 90.48507 85.1254 90.48507 27.7445 0 49.8141-13.24172 62.4252-35.31125v28.05983c0 35.94181-23.0154 55.80439-55.8044 55.80439-27.114 0-49.4988-15.1334-54.8585-34.36541z" stroke-width="9.85242"/></g></svg>